<?xml version="1.0" standalone="no"?>
<!DOCTYPE svg PUBLIC "-//W3C//DTD SVG 20010904//EN"
 "http://www.w3.org/TR/2001/REC-SVG-20010904/DTD/svg10.dtd">
<svg version="1.0" xmlns="http://www.w3.org/2000/svg"
 width="16.000000pt" height="16.000000pt" viewBox="0 0 16.000000 16.000000"
 preserveAspectRatio="xMidYMid meet">

<g transform="translate(0.000000,16.000000) scale(0.100000,-0.100000)"
fill="#000000" stroke="none">
<path d="M20 80 c0 -63 13 -77 41 -44 12 14 14 14 20 -3 6 -13 8 -10 8 14 1
25 6 32 24 35 16 2 23 11 25 31 3 24 0 27 -27 27 -22 0 -31 -5 -31 -17 0 -15
-1 -15 -18 0 -33 30 -42 21 -42 -43z m38 38 c23 -23 9 -88 -20 -88 -4 0 -8 23
-8 50 0 51 6 60 28 38z m72 -8 c0 -13 -7 -20 -20 -20 -13 0 -20 7 -20 20 0 13
7 20 20 20 13 0 20 -7 20 -20z"/>
</g>
</svg>
